<svg xmlns="http://www.w3.org/2000/svg" xmlns:xlink="http://www.w3.org/1999/xlink" width="150" zoomAndPan="magnify" viewBox="0 0 112.5 112.499997" height="150" preserveAspectRatio="xMidYMid meet" version="1.0"><defs><g/><clipPath id="6516c63868"><path d="M 0 0 L 111.253906 0 L 111.253906 112 L 0 112 Z M 0 0 " clip-rule="nonzero"/></clipPath><clipPath id="c137e28b2a"><path d="M 25 54 L 88 54 L 88 102 L 25 102 Z M 25 54 " clip-rule="nonzero"/></clipPath><clipPath id="2384d1a974"><path d="M 25.867188 65.324219 L 80.339844 54.128906 L 87.808594 90.464844 L 33.335938 101.664062 Z M 25.867188 65.324219 " clip-rule="nonzero"/></clipPath><clipPath id="f6b707f1a0"><path d="M 0.804688 0 L 62.929688 0 L 62.929688 47.789062 L 0.804688 47.789062 Z M 0.804688 0 " clip-rule="nonzero"/></clipPath><clipPath id="a71b2d3e78"><path d="M 0.867188 11.324219 L 55.339844 0.128906 L 62.808594 36.464844 L 8.335938 47.664062 Z M 0.867188 11.324219 " clip-rule="nonzero"/></clipPath><clipPath id="37d9c2cc73"><rect x="0" width="63" y="0" height="48"/></clipPath></defs><path fill="#2f325d" d="M 9.351562 61.253906 L 7.386719 50.117188 C 7.101562 48.480469 8.191406 46.921875 9.828125 46.632812 L 95.523438 31.515625 C 97.15625 31.226562 98.71875 32.320312 99.007812 33.957031 L 100.96875 45.09375 Z M 9.351562 61.253906 " fill-opacity="1" fill-rule="nonzero"/><path fill="#414785" d="M 16.410156 60.011719 L 9.351562 61.253906 L 7.394531 50.109375 C 7.109375 48.484375 8.183594 46.910156 9.828125 46.625 L 13.929688 45.910156 Z M 16.410156 60.011719 " fill-opacity="1" fill-rule="nonzero"/><path fill="#b4e0e9" d="M 100.972656 45.097656 L 93.816406 46.363281 L 81.9375 33.90625 L 95.511719 31.519531 C 97.15625 31.230469 98.707031 32.328125 98.996094 33.953125 Z M 100.972656 45.097656 " fill-opacity="1" fill-rule="nonzero"/><path fill="#b4e0e9" d="M 76.835938 49.34375 L 59.851562 52.351562 L 47.96875 39.894531 L 64.953125 36.910156 Z M 76.835938 49.34375 " fill-opacity="1" fill-rule="nonzero"/><path fill="#b4e0e9" d="M 42.890625 55.335938 L 25.90625 58.339844 L 14.027344 45.882812 L 30.988281 42.902344 Z M 42.890625 55.335938 " fill-opacity="1" fill-rule="nonzero"/><path fill="#b4e0e9" d="M 2.5625 36.941406 L 5.488281 44.980469 C 6.03125 46.472656 7.683594 47.246094 9.179688 46.703125 L 93.429688 16.023438 C 94.921875 15.480469 95.695312 13.828125 95.148438 12.332031 L 92.226562 4.292969 C 91.679688 2.796875 90.027344 2.023438 88.53125 2.570312 L 4.285156 33.246094 C 2.789062 33.789062 2.019531 35.445312 2.5625 36.941406 Z M 2.5625 36.941406 " fill-opacity="1" fill-rule="nonzero"/><path fill="#f6f0e0" d="M 13.144531 45.242188 L 9.183594 46.695312 C 7.679688 47.246094 6.035156 46.480469 5.488281 44.976562 L 2.550781 36.9375 C 2.027344 35.433594 2.789062 33.785156 4.292969 33.238281 L 8.253906 31.78125 Z M 13.144531 45.242188 " fill-opacity="1" fill-rule="nonzero"/><path fill="#2f325d" d="M 9.351562 61.253906 L 100.96875 45.09375 L 108.792969 89.484375 C 109.253906 92.09375 107.511719 94.582031 104.90625 95.042969 L 22.730469 109.539062 C 20.125 109.996094 17.636719 108.253906 17.175781 105.648438 Z M 9.351562 61.253906 " fill-opacity="1" fill-rule="nonzero"/><path fill="#414785" d="M 25.046875 109.125 L 22.734375 109.53125 C 20.132812 110.007812 17.628906 108.265625 17.175781 105.640625 L 9.351562 61.253906 L 16.410156 60.011719 Z M 25.046875 109.125 " fill-opacity="1" fill-rule="nonzero"/><path fill="#414785" d="M 39.574219 35.625 L 23.378906 41.519531 L 9.519531 31.328125 L 25.714844 25.433594 Z M 39.574219 35.625 " fill-opacity="1" fill-rule="nonzero"/><path fill="#414785" d="M 71.992188 23.835938 L 55.792969 29.730469 L 41.933594 19.539062 L 58.132812 13.644531 Z M 71.992188 23.835938 " fill-opacity="1" fill-rule="nonzero"/><path fill="#414785" d="M 93.4375 16.03125 L 88.1875 17.941406 L 74.328125 7.75 L 88.523438 2.570312 C 90.023438 2.023438 91.671875 2.785156 92.21875 4.289062 L 95.152344 12.332031 C 95.703125 13.835938 94.914062 15.480469 93.4375 16.03125 Z M 93.4375 16.03125 " fill-opacity="1" fill-rule="nonzero"/><path fill="#ee685c" d="M 77.605469 73.765625 C 77.449219 77.511719 75.371094 81.242188 73.183594 84.195312 C 69.523438 89.128906 65.15625 92.175781 62.804688 93.242188 C 60.230469 93.042969 55.085938 91.675781 49.957031 88.289062 C 46.941406 86.296875 43.636719 83.429688 42.238281 80.003906 C 40.390625 75.484375 41.476562 70.128906 45.4375 67.097656 C 46.808594 66.046875 48.453125 65.296875 50.269531 64.976562 C 53.082031 64.480469 55.859375 65.089844 58.09375 66.511719 C 59.703125 64.414062 62.105469 62.886719 64.917969 62.390625 C 66.734375 62.070312 68.539062 62.214844 70.1875 62.730469 C 74.945312 64.226562 77.796875 68.886719 77.605469 73.765625 Z M 77.605469 73.765625 " fill-opacity="1" fill-rule="nonzero"/><path fill="#cb5241" d="M 62.347656 90.734375 C 60.238281 90.316406 56.679688 89.167969 53 86.738281 C 49.964844 84.734375 47.859375 82.566406 47.070312 80.628906 C 45.960938 77.929688 46.652344 74.925781 48.75 73.320312 C 49.566406 72.695312 50.496094 72.285156 51.515625 72.105469 C 51.875 72.042969 52.25 72.007812 52.621094 72.007812 C 53.8125 72.007812 54.960938 72.339844 55.945312 72.96875 L 59.628906 75.308594 L 62.289062 71.847656 C 63.230469 70.621094 64.605469 69.796875 66.160156 69.523438 C 66.535156 69.460938 66.90625 69.425781 67.277344 69.425781 C 67.921875 69.425781 68.558594 69.523438 69.171875 69.714844 C 71.6875 70.507812 73.367188 73.09375 73.253906 76.011719 C 73.164062 78.132812 71.957031 80.824219 69.765625 83.78125 C 67.140625 87.324219 64.1875 89.617188 62.347656 90.734375 Z M 62.347656 90.734375 " fill-opacity="1" fill-rule="nonzero"/><g clip-path="url(#6516c63868)"><path fill="#30100b" d="M 25.0625 93.144531 L 25.90625 97.84375 C 25.949219 98.070312 25.796875 98.289062 25.570312 98.328125 C 25.546875 98.332031 25.519531 98.335938 25.496094 98.335938 C 25.300781 98.335938 25.121094 98.191406 25.085938 97.992188 L 24.242188 93.292969 C 24.203125 93.066406 24.351562 92.847656 24.578125 92.808594 C 24.824219 92.773438 25.027344 92.921875 25.0625 93.144531 Z M 20.351562 69.324219 C 20.128906 69.363281 19.976562 69.578125 20.019531 69.808594 L 20.863281 74.507812 C 20.898438 74.707031 21.074219 74.847656 21.273438 74.847656 C 21.296875 74.847656 21.324219 74.847656 21.347656 74.84375 C 21.574219 74.800781 21.726562 74.585938 21.683594 74.355469 L 20.835938 69.660156 C 20.800781 69.433594 20.601562 69.285156 20.351562 69.324219 Z M 22.464844 81.066406 C 22.242188 81.105469 22.089844 81.324219 22.128906 81.550781 L 22.976562 86.25 C 23.011719 86.449219 23.1875 86.59375 23.386719 86.59375 C 23.410156 86.59375 23.433594 86.589844 23.460938 86.585938 C 23.6875 86.546875 23.839844 86.328125 23.796875 86.101562 L 22.949219 81.402344 C 22.910156 81.179688 22.714844 81.027344 22.464844 81.066406 Z M 105.320312 97.398438 L 23.144531 111.878906 C 22.71875 111.960938 22.285156 112 21.859375 112 C 20.417969 112 19.003906 111.558594 17.785156 110.710938 C 16.203125 109.605469 15.152344 107.949219 14.824219 106.050781 L 5.046875 50.527344 C 4.910156 49.761719 4.953125 48.996094 5.136719 48.265625 C 4.300781 47.667969 3.621094 46.832031 3.246094 45.796875 L 0.320312 37.757812 C -0.160156 36.433594 -0.0976562 35.003906 0.496094 33.726562 C 1.09375 32.449219 2.148438 31.484375 3.472656 31.003906 L 87.714844 0.328125 C 89.035156 -0.152344 90.46875 -0.09375 91.742188 0.503906 C 93.019531 1.101562 93.988281 2.15625 94.464844 3.480469 L 97.390625 11.515625 C 98.382812 14.246094 96.96875 17.277344 94.242188 18.265625 L 35.398438 39.695312 L 95.09375 29.171875 C 98.027344 28.640625 100.824219 30.617188 101.339844 33.539062 L 111.144531 89.070312 C 111.832031 92.984375 109.21875 96.71875 105.320312 97.398438 Z M 86.738281 35.492188 L 94.660156 43.785156 L 98.195312 43.164062 L 96.644531 34.367188 C 96.589844 34.074219 96.328125 33.863281 96.03125 33.863281 C 95.992188 33.863281 95.957031 33.863281 95.921875 33.871094 Z M 14.515625 32.058594 L 23.742188 38.859375 L 34.582031 34.914062 L 25.339844 28.121094 Z M 30.726562 26.160156 L 39.96875 32.953125 L 50.785156 29.015625 L 41.542969 22.21875 Z M 46.929688 20.257812 L 56.171875 27.050781 L 66.984375 23.113281 L 57.742188 16.320312 Z M 63.128906 14.359375 L 72.371094 21.152344 L 83.1875 17.214844 L 73.945312 10.421875 Z M 11.292969 58.492188 L 21.09375 56.765625 L 13.167969 48.460938 L 10.242188 48.976562 C 10.035156 49.011719 9.914062 49.132812 9.847656 49.226562 C 9.792969 49.304688 9.703125 49.472656 9.742188 49.695312 Z M 38.074219 53.769531 L 30.152344 45.464844 L 18.816406 47.464844 L 26.742188 55.769531 Z M 55.058594 50.773438 L 47.132812 42.472656 L 35.796875 44.472656 L 43.71875 52.773438 Z M 72.035156 47.777344 L 64.113281 39.480469 L 52.777344 41.476562 L 60.699219 49.777344 Z M 89.015625 44.78125 L 81.09375 36.484375 L 69.757812 38.484375 L 77.679688 46.78125 Z M 79.332031 8.460938 L 88.570312 15.253906 L 92.613281 13.78125 C 92.867188 13.691406 93 13.402344 92.90625 13.144531 L 89.980469 5.109375 C 89.925781 4.949219 89.808594 4.867188 89.726562 4.828125 C 89.675781 4.804688 89.601562 4.78125 89.519531 4.78125 C 89.464844 4.78125 89.410156 4.792969 89.347656 4.8125 Z M 4.804688 36.125 L 7.726562 44.164062 C 7.824219 44.417969 8.101562 44.550781 8.367188 44.460938 L 18.363281 40.820312 L 9.136719 34.019531 L 5.101562 35.488281 C 4.9375 35.546875 4.859375 35.660156 4.820312 35.746094 C 4.78125 35.828125 4.746094 35.964844 4.804688 36.125 Z M 106.445312 89.894531 L 99.027344 47.863281 L 12.117188 63.191406 L 19.523438 105.226562 C 19.632812 105.871094 19.984375 106.425781 20.515625 106.796875 C 21.039062 107.160156 21.664062 107.296875 22.300781 107.183594 L 104.496094 92.699219 C 104.496094 92.695312 104.5 92.695312 104.5 92.695312 C 105.125 92.585938 105.671875 92.234375 106.042969 91.703125 C 106.414062 91.171875 106.558594 90.53125 106.445312 89.894531 Z M 97.390625 79.332031 C 97.167969 79.371094 97.015625 79.589844 97.058594 79.816406 L 97.902344 84.515625 C 97.9375 84.714844 98.113281 84.859375 98.3125 84.859375 C 98.335938 84.859375 98.359375 84.855469 98.386719 84.851562 C 98.613281 84.8125 98.765625 84.59375 98.722656 84.367188 L 97.878906 79.667969 C 97.835938 79.445312 97.632812 79.289062 97.390625 79.332031 Z M 95.28125 67.589844 C 95.054688 67.628906 94.90625 67.84375 94.945312 68.074219 L 95.789062 72.773438 C 95.824219 72.972656 96 73.113281 96.199219 73.113281 C 96.222656 73.113281 96.25 73.113281 96.273438 73.109375 C 96.5 73.066406 96.652344 72.851562 96.609375 72.625 L 95.765625 67.925781 C 95.726562 67.703125 95.535156 67.546875 95.28125 67.589844 Z M 93.167969 55.847656 C 92.941406 55.886719 92.792969 56.101562 92.832031 56.332031 L 93.679688 61.027344 C 93.714844 61.230469 93.890625 61.371094 94.089844 61.371094 C 94.113281 61.371094 94.136719 61.371094 94.164062 61.363281 C 94.390625 61.324219 94.539062 61.109375 94.5 60.878906 L 93.652344 56.183594 C 93.613281 55.957031 93.417969 55.800781 93.167969 55.847656 Z M 79.988281 73.859375 L 79.988281 73.867188 C 79.835938 77.492188 78.191406 81.445312 75.097656 85.617188 C 71.25 90.804688 66.601562 94.140625 63.792969 95.417969 L 63.230469 95.671875 L 62.621094 95.625 C 59.539062 95.386719 54.027344 93.84375 48.644531 90.28125 C 45.65625 88.3125 41.734375 85.085938 40.027344 80.910156 C 37.703125 75.226562 39.332031 68.769531 43.984375 65.207031 C 45.695312 63.894531 47.722656 63.003906 49.855469 62.628906 C 52.488281 62.160156 55.167969 62.488281 57.566406 63.535156 C 59.464844 61.726562 61.867188 60.507812 64.507812 60.042969 C 66.632812 59.675781 68.839844 59.808594 70.898438 60.457031 C 76.492188 62.210938 80.226562 67.722656 79.988281 73.859375 Z M 75.222656 73.671875 C 75.375 69.683594 73.015625 66.121094 69.46875 65.007812 C 68.140625 64.59375 66.707031 64.5 65.335938 64.742188 C 63.1875 65.121094 61.289062 66.265625 59.984375 67.964844 L 58.652344 69.695312 L 56.8125 68.523438 C 55.4375 67.648438 53.84375 67.191406 52.210938 67.191406 C 51.703125 67.191406 51.191406 67.238281 50.679688 67.328125 C 49.304688 67.570312 47.992188 68.148438 46.886719 68.996094 C 43.9375 71.253906 42.933594 75.40625 44.445312 79.101562 C 45.417969 81.480469 47.839844 84.035156 51.269531 86.296875 C 55.769531 89.273438 60.101562 90.484375 62.371094 90.796875 C 64.398438 89.726562 68.050781 87.105469 71.269531 82.773438 C 73.742188 79.433594 75.109375 76.289062 75.222656 73.671875 Z M 75.222656 73.671875 " fill-opacity="1" fill-rule="nonzero"/></g><g clip-path="url(#c137e28b2a)"><g clip-path="url(#2384d1a974)"><g transform="matrix(1, 0, 0, 1, 25, 54)"><g clip-path="url(#37d9c2cc73)"><g clip-path="url(#f6b707f1a0)"><g clip-path="url(#a71b2d3e78)"><path fill="#2f325d" d="M 0.867188 11.324219 L 55.371094 0.121094 L 62.84375 36.457031 L 8.335938 47.664062 Z M 0.867188 11.324219 " fill-opacity="1" fill-rule="nonzero"/></g></g></g></g></g></g><g fill="#bfecac" fill-opacity="1"><g transform="translate(25.221891, 89.442301)"><g><path d="M -0.484375 -19.65625 L 3.21875 -20.234375 L 11.109375 -13 L 16.453125 -22.265625 L 20.1875 -22.84375 L 23.15625 -3.5625 L 19.015625 -2.921875 L 17.0625 -15.59375 L 12.046875 -6.921875 L 4.65625 -13.6875 L 6.609375 -1.015625 L 2.484375 -0.375 Z M -0.484375 -19.65625 "/></g></g></g><g fill="#ffffff" fill-opacity="1"><g transform="translate(51.108176, 85.566806)"><g><path d="M 13.5625 -8.953125 L 4.046875 -7.390625 C 4.367188 -6.128906 4.890625 -5.253906 5.609375 -4.765625 C 6.328125 -4.285156 7.234375 -4.132812 8.328125 -4.3125 C 9.160156 -4.445312 9.816406 -4.71875 10.296875 -5.125 C 10.773438 -5.53125 11.128906 -6.082031 11.359375 -6.78125 L 11.625 -6.828125 L 14.34375 -5.625 C 14.039062 -4.519531 13.453125 -3.5625 12.578125 -2.75 C 11.703125 -1.945312 10.457031 -1.414062 8.84375 -1.15625 C 7.3125 -0.90625 5.9375 -0.976562 4.71875 -1.375 C 3.507812 -1.78125 2.507812 -2.507812 1.71875 -3.5625 C 0.925781 -4.613281 0.394531 -5.96875 0.125 -7.625 C -0.15625 -9.3125 -0.0703125 -10.78125 0.375 -12.03125 C 0.820312 -13.289062 1.539062 -14.289062 2.53125 -15.03125 C 3.53125 -15.78125 4.703125 -16.265625 6.046875 -16.484375 C 8.140625 -16.828125 9.832031 -16.535156 11.125 -15.609375 C 12.425781 -14.679688 13.253906 -13.144531 13.609375 -11 C 13.734375 -10.21875 13.804688 -9.601562 13.828125 -9.15625 Z M 9.96875 -10.84375 C 9.757812 -11.96875 9.367188 -12.75 8.796875 -13.1875 C 8.222656 -13.625 7.460938 -13.765625 6.515625 -13.609375 C 4.628906 -13.296875 3.703125 -12.03125 3.734375 -9.8125 Z M 9.96875 -10.84375 "/></g></g></g><g fill="#ffffff" fill-opacity="1"><g transform="translate(67.212847, 82.938263)"><g><path d="M 13.5625 -8.953125 L 4.046875 -7.390625 C 4.367188 -6.128906 4.890625 -5.253906 5.609375 -4.765625 C 6.328125 -4.285156 7.234375 -4.132812 8.328125 -4.3125 C 9.160156 -4.445312 9.816406 -4.71875 10.296875 -5.125 C 10.773438 -5.53125 11.128906 -6.082031 11.359375 -6.78125 L 11.625 -6.828125 L 14.34375 -5.625 C 14.039062 -4.519531 13.453125 -3.5625 12.578125 -2.75 C 11.703125 -1.945312 10.457031 -1.414062 8.84375 -1.15625 C 7.3125 -0.90625 5.9375 -0.976562 4.71875 -1.375 C 3.507812 -1.78125 2.507812 -2.507812 1.71875 -3.5625 C 0.925781 -4.613281 0.394531 -5.96875 0.125 -7.625 C -0.15625 -9.3125 -0.0703125 -10.78125 0.375 -12.03125 C 0.820312 -13.289062 1.539062 -14.289062 2.53125 -15.03125 C 3.53125 -15.78125 4.703125 -16.265625 6.046875 -16.484375 C 8.140625 -16.828125 9.832031 -16.535156 11.125 -15.609375 C 12.425781 -14.679688 13.253906 -13.144531 13.609375 -11 C 13.734375 -10.21875 13.804688 -9.601562 13.828125 -9.15625 Z M 9.96875 -10.84375 C 9.757812 -11.96875 9.367188 -12.75 8.796875 -13.1875 C 8.222656 -13.625 7.460938 -13.765625 6.515625 -13.609375 C 4.628906 -13.296875 3.703125 -12.03125 3.734375 -9.8125 Z M 9.96875 -10.84375 "/></g></g></g><g fill="#ffffff" fill-opacity="1"><g transform="translate(83.317518, 80.30972)"><g><path d="M 9.640625 -5.203125 L 11.078125 -2.609375 C 10.710938 -2.203125 10.242188 -1.851562 9.671875 -1.5625 C 9.097656 -1.28125 8.425781 -1.078125 7.65625 -0.953125 C 6.050781 -0.691406 4.757812 -0.929688 3.78125 -1.671875 C 2.8125 -2.410156 2.1875 -3.613281 1.90625 -5.28125 L 0.765625 -12.3125 L -1.484375 -11.953125 L -1.96875 -14.90625 L 0.28125 -15.265625 L -0.1875 -18.15625 L 3.4375 -19.359375 L 4 -15.875 L 8.203125 -16.5625 L 8.6875 -13.609375 L 4.484375 -12.921875 L 5.59375 -6.15625 C 5.707031 -5.425781 5.945312 -4.914062 6.3125 -4.625 C 6.675781 -4.332031 7.144531 -4.234375 7.71875 -4.328125 C 8.382812 -4.429688 8.9375 -4.707031 9.375 -5.15625 Z M 9.640625 -5.203125 "/></g></g></g></svg>