<svg xmlns="http://www.w3.org/2000/svg" xmlns:xlink="http://www.w3.org/1999/xlink" width="1920" zoomAndPan="magnify" viewBox="0 0 1440 809.999993" height="1080" preserveAspectRatio="xMidYMid meet" version="1.0"><defs><g/><clipPath id="42d13ce88f"><path d="M 763.289062 376.019531 L 840.539062 376.019531 L 840.539062 453.269531 L 763.289062 453.269531 Z M 763.289062 376.019531 " clip-rule="nonzero"/></clipPath><clipPath id="f87db0fcab"><path d="M 1058.847656 350.195312 L 1129.347656 350.195312 L 1129.347656 459.695312 L 1058.847656 459.695312 Z M 1058.847656 350.195312 " clip-rule="nonzero"/></clipPath></defs><g fill="#ffffff" fill-opacity="1"><g transform="translate(390.412808, 450.749997)"><g><path d="M 43.9375 1.484375 C 38.570312 1.484375 33.53125 0.492188 28.8125 -1.484375 C 24.101562 -3.472656 19.984375 -6.203125 16.453125 -9.671875 C 12.929688 -13.148438 10.175781 -17.171875 8.1875 -21.734375 C 6.207031 -26.304688 5.21875 -31.226562 5.21875 -36.5 C 5.21875 -41.65625 6.207031 -46.539062 8.1875 -51.15625 C 10.175781 -55.78125 12.90625 -59.828125 16.375 -63.296875 C 19.851562 -66.773438 23.875 -69.507812 28.4375 -71.5 C 33.007812 -73.488281 37.929688 -74.484375 43.203125 -74.484375 C 48.265625 -74.484375 53.003906 -73.515625 57.421875 -71.578125 C 61.835938 -69.640625 65.679688 -67.03125 68.953125 -63.75 C 72.234375 -60.476562 74.84375 -56.628906 76.78125 -52.203125 C 78.71875 -47.785156 79.6875 -43.046875 79.6875 -37.984375 C 79.6875 -36.585938 79.632812 -35.367188 79.53125 -34.328125 C 79.4375 -33.285156 79.34375 -32.367188 79.25 -31.578125 C 79.144531 -30.585938 79.039062 -29.742188 78.9375 -29.046875 L 26.0625 -29.046875 C 27.15625 -25.671875 29.265625 -22.71875 32.390625 -20.1875 C 35.523438 -17.65625 39.875 -16.390625 45.4375 -16.390625 C 48.613281 -16.390625 51.390625 -16.785156 53.765625 -17.578125 C 56.148438 -18.367188 58.1875 -19.3125 59.875 -20.40625 C 61.757812 -21.59375 63.398438 -22.984375 64.796875 -24.578125 L 75.21875 -10.421875 C 73.03125 -8.242188 70.347656 -6.257812 67.171875 -4.46875 C 64.492188 -2.976562 61.21875 -1.613281 57.34375 -0.375 C 53.46875 0.863281 49 1.484375 43.9375 1.484375 Z M 58.84375 -43.9375 C 57.75 -47.3125 55.785156 -50.265625 52.953125 -52.796875 C 50.117188 -55.335938 46.617188 -56.609375 42.453125 -56.609375 C 38.285156 -56.609375 34.785156 -55.335938 31.953125 -52.796875 C 29.117188 -50.265625 27.15625 -47.3125 26.0625 -43.9375 Z M 58.84375 -43.9375 "/></g></g></g><g fill="#ffffff" fill-opacity="1"><g transform="translate(475.318306, 450.749997)"><g><path d="M 43.9375 1.484375 C 38.570312 1.484375 33.53125 0.492188 28.8125 -1.484375 C 24.101562 -3.472656 19.984375 -6.203125 16.453125 -9.671875 C 12.929688 -13.148438 10.175781 -17.171875 8.1875 -21.734375 C 6.207031 -26.304688 5.21875 -31.226562 5.21875 -36.5 C 5.21875 -41.65625 6.207031 -46.539062 8.1875 -51.15625 C 10.175781 -55.78125 12.90625 -59.828125 16.375 -63.296875 C 19.851562 -66.773438 23.875 -69.507812 28.4375 -71.5 C 33.007812 -73.488281 37.929688 -74.484375 43.203125 -74.484375 C 48.265625 -74.484375 53.003906 -73.515625 57.421875 -71.578125 C 61.835938 -69.640625 65.679688 -67.03125 68.953125 -63.75 C 72.234375 -60.476562 74.84375 -56.628906 76.78125 -52.203125 C 78.71875 -47.785156 79.6875 -43.046875 79.6875 -37.984375 C 79.6875 -36.585938 79.632812 -35.367188 79.53125 -34.328125 C 79.4375 -33.285156 79.34375 -32.367188 79.25 -31.578125 C 79.144531 -30.585938 79.039062 -29.742188 78.9375 -29.046875 L 26.0625 -29.046875 C 27.15625 -25.671875 29.265625 -22.71875 32.390625 -20.1875 C 35.523438 -17.65625 39.875 -16.390625 45.4375 -16.390625 C 48.613281 -16.390625 51.390625 -16.785156 53.765625 -17.578125 C 56.148438 -18.367188 58.1875 -19.3125 59.875 -20.40625 C 61.757812 -21.59375 63.398438 -22.984375 64.796875 -24.578125 L 75.21875 -10.421875 C 73.03125 -8.242188 70.347656 -6.257812 67.171875 -4.46875 C 64.492188 -2.976562 61.21875 -1.613281 57.34375 -0.375 C 53.46875 0.863281 49 1.484375 43.9375 1.484375 Z M 58.84375 -43.9375 C 57.75 -47.3125 55.785156 -50.265625 52.953125 -52.796875 C 50.117188 -55.335938 46.617188 -56.609375 42.453125 -56.609375 C 38.285156 -56.609375 34.785156 -55.335938 31.953125 -52.796875 C 29.117188 -50.265625 27.15625 -47.3125 26.0625 -43.9375 Z M 58.84375 -43.9375 "/></g></g></g><g fill="#ffffff" fill-opacity="1"><g transform="translate(560.223804, 450.749997)"><g><path d="M 40.21875 1.484375 C 32.769531 1.484375 26.8125 -0.820312 22.34375 -5.4375 C 17.875 -10.050781 15.640625 -16.679688 15.640625 -25.328125 L 15.640625 -52.875 L 2.984375 -52.875 L 2.984375 -71.5 L 9.6875 -71.5 C 15.144531 -71.5 17.875 -74.476562 17.875 -80.4375 L 17.875 -93.84375 L 35.75 -93.84375 L 35.75 -71.5 L 52.140625 -71.5 L 52.140625 -52.875 L 35.75 -52.875 L 35.75 -28.296875 C 35.75 -24.921875 36.617188 -22.335938 38.359375 -20.546875 C 40.097656 -18.765625 42.457031 -17.875 45.4375 -17.875 C 47.613281 -17.875 49.546875 -18.125 51.234375 -18.625 C 52.128906 -18.820312 52.925781 -19.066406 53.625 -19.359375 L 53.625 -0.75 C 52.425781 -0.351562 51.132812 0.046875 49.75 0.453125 C 48.5625 0.742188 47.144531 0.988281 45.5 1.1875 C 43.863281 1.382812 42.101562 1.484375 40.21875 1.484375 Z M 40.21875 1.484375 "/></g></g></g><g fill="#ffffff" fill-opacity="1"><g transform="translate(619.806595, 450.749997)"><g><path d="M 13.40625 -104.265625 L 33.515625 -104.265625 L 69.265625 -59.578125 L 105.015625 -104.265625 L 125.125 -104.265625 L 125.125 0 L 102.78125 0 L 102.78125 -68.515625 L 69.265625 -26.8125 L 35.75 -68.515625 L 35.75 0 L 13.40625 0 Z M 13.40625 -104.265625 "/></g></g></g><g fill="#ffffff" fill-opacity="1"><g transform="translate(758.346387, 450.749997)"><g/></g></g><g fill="#ffffff" fill-opacity="1"><g transform="translate(789.627357, 450.749997)"><g/></g></g><g fill="#ffffff" fill-opacity="1"><g transform="translate(820.908327, 450.749997)"><g/></g></g><g fill="#ffffff" fill-opacity="1"><g transform="translate(849.21357, 450.749997)"><g><path d="M -0.75 -72.984375 L 20.859375 -72.984375 L 37.6875 -23.828125 L 38.28125 -23.828125 L 55.109375 -72.984375 L 76.703125 -72.984375 L 49.15625 0 L 26.8125 0 Z M -0.75 -72.984375 "/></g></g></g><g fill="#ffffff" fill-opacity="1"><g transform="translate(925.181645, 450.749997)"><g><path d="M 9.6875 -72.984375 L 29.796875 -72.984375 L 29.796875 0 L 9.6875 0 Z M 19.65625 -82.671875 C 16.476562 -82.671875 13.769531 -83.785156 11.53125 -86.015625 C 9.300781 -88.253906 8.1875 -90.863281 8.1875 -93.84375 C 8.1875 -96.820312 9.328125 -99.425781 11.609375 -101.65625 C 13.898438 -103.894531 16.632812 -105.015625 19.8125 -105.015625 C 22.988281 -105.015625 25.691406 -103.894531 27.921875 -101.65625 C 30.160156 -99.425781 31.28125 -96.820312 31.28125 -93.84375 C 31.28125 -90.863281 30.132812 -88.253906 27.84375 -86.015625 C 25.5625 -83.785156 22.832031 -82.671875 19.65625 -82.671875 Z M 19.65625 -82.671875 "/></g></g></g><g fill="#ffffff" fill-opacity="1"><g transform="translate(964.655256, 450.749997)"><g><path d="M 43.9375 1.484375 C 38.570312 1.484375 33.53125 0.492188 28.8125 -1.484375 C 24.101562 -3.472656 19.984375 -6.203125 16.453125 -9.671875 C 12.929688 -13.148438 10.175781 -17.171875 8.1875 -21.734375 C 6.207031 -26.304688 5.21875 -31.226562 5.21875 -36.5 C 5.21875 -41.65625 6.207031 -46.539062 8.1875 -51.15625 C 10.175781 -55.78125 12.90625 -59.828125 16.375 -63.296875 C 19.851562 -66.773438 23.875 -69.507812 28.4375 -71.5 C 33.007812 -73.488281 37.929688 -74.484375 43.203125 -74.484375 C 48.265625 -74.484375 53.003906 -73.515625 57.421875 -71.578125 C 61.835938 -69.640625 65.679688 -67.03125 68.953125 -63.75 C 72.234375 -60.476562 74.84375 -56.628906 76.78125 -52.203125 C 78.71875 -47.785156 79.6875 -43.046875 79.6875 -37.984375 C 79.6875 -36.585938 79.632812 -35.367188 79.53125 -34.328125 C 79.4375 -33.285156 79.34375 -32.367188 79.25 -31.578125 C 79.144531 -30.585938 79.039062 -29.742188 78.9375 -29.046875 L 26.0625 -29.046875 C 27.15625 -25.671875 29.265625 -22.71875 32.390625 -20.1875 C 35.523438 -17.65625 39.875 -16.390625 45.4375 -16.390625 C 48.613281 -16.390625 51.390625 -16.785156 53.765625 -17.578125 C 56.148438 -18.367188 58.1875 -19.3125 59.875 -20.40625 C 61.757812 -21.59375 63.398438 -22.984375 64.796875 -24.578125 L 75.21875 -10.421875 C 73.03125 -8.242188 70.347656 -6.257812 67.171875 -4.46875 C 64.492188 -2.976562 61.21875 -1.613281 57.34375 -0.375 C 53.46875 0.863281 49 1.484375 43.9375 1.484375 Z M 58.84375 -43.9375 C 57.75 -47.3125 55.785156 -50.265625 52.953125 -52.796875 C 50.117188 -55.335938 46.617188 -56.609375 42.453125 -56.609375 C 38.285156 -56.609375 34.785156 -55.335938 31.953125 -52.796875 C 29.117188 -50.265625 27.15625 -47.3125 26.0625 -43.9375 Z M 58.84375 -43.9375 "/></g></g></g><g clip-path="url(#42d13ce88f)"><path fill="#0081cc" d="M 801.984375 380.300781 C 783.007812 380.300781 767.570312 395.738281 767.570312 414.714844 C 767.570312 433.691406 783.007812 449.128906 801.984375 449.128906 C 820.960938 449.128906 836.398438 433.691406 836.398438 414.714844 C 836.398438 395.738281 820.960938 380.300781 801.984375 380.300781 Z M 801.984375 453.421875 C 791.644531 453.421875 781.925781 449.394531 774.617188 442.082031 C 767.304688 434.773438 763.28125 425.054688 763.28125 414.714844 C 763.28125 404.375 767.304688 394.65625 774.617188 387.347656 C 781.925781 380.035156 791.644531 376.007812 801.984375 376.007812 C 812.324219 376.007812 822.042969 380.035156 829.355469 387.347656 C 836.664062 394.65625 840.691406 404.375 840.691406 414.714844 C 840.691406 425.054688 836.664062 434.773438 829.355469 442.082031 C 822.042969 449.394531 812.324219 453.421875 801.984375 453.421875 " fill-opacity="1" fill-rule="nonzero"/></g><path fill="#0081cc" d="M 820.140625 410.933594 L 796.183594 397.101562 C 794.816406 396.3125 793.183594 396.3125 791.816406 397.101562 C 790.449219 397.890625 789.632812 399.304688 789.632812 400.882812 L 789.632812 428.546875 C 789.632812 430.125 790.449219 431.539062 791.816406 432.328125 C 792.5 432.722656 793.25 432.921875 794 432.921875 C 794.75 432.921875 795.5 432.722656 796.183594 432.328125 L 820.140625 418.496094 C 821.507812 417.707031 822.324219 416.292969 822.324219 414.714844 C 822.324219 413.136719 821.507812 411.722656 820.140625 410.933594 " fill-opacity="1" fill-rule="nonzero"/><g clip-path="url(#f87db0fcab)"><path fill="#c0c0c0" d="M 1083.421875 459.414062 L 1083.453125 459.035156 C 1083.457031 459.039062 1083.457031 459.039062 1083.460938 459.039062 C 1083.472656 459.039062 1083.484375 459.039062 1083.496094 459.042969 L 1083.472656 459.429688 C 1086.636719 459.746094 1089.816406 459.804688 1092.984375 459.792969 C 1094.570312 459.785156 1096.160156 459.75 1097.75 459.660156 C 1099.335938 459.570312 1100.921875 459.417969 1102.5 459.210938 C 1104.078125 459.003906 1105.648438 458.734375 1107.203125 458.386719 C 1107.980469 458.214844 1108.753906 458.015625 1109.519531 457.8125 C 1109.902344 457.710938 1110.285156 457.589844 1110.667969 457.480469 C 1111.050781 457.371094 1111.4375 457.246094 1111.8125 457.117188 C 1112.191406 456.984375 1112.5625 456.855469 1112.933594 456.71875 C 1113.308594 456.574219 1113.683594 456.433594 1114.054688 456.277344 C 1114.800781 455.96875 1115.527344 455.65625 1116.238281 455.289062 C 1117.664062 454.5625 1119.035156 453.730469 1120.289062 452.714844 C 1122.75 450.65625 1124.800781 448.117188 1126.222656 445.242188 C 1126.9375 443.808594 1127.511719 442.316406 1127.960938 440.78125 C 1128.390625 439.238281 1128.699219 437.675781 1128.902344 436.09375 C 1129.097656 434.507812 1129.183594 432.917969 1129.191406 431.328125 C 1129.1875 429.734375 1129.089844 428.140625 1128.882812 426.5625 C 1128.472656 423.40625 1127.613281 420.296875 1126.265625 417.402344 C 1125.703125 416.203125 1125.058594 415.042969 1124.339844 413.925781 L 1124.351562 413.917969 L 1124.179688 413.660156 C 1122.40625 410.980469 1120.222656 408.605469 1117.921875 406.398438 C 1116.769531 405.289062 1115.570312 404.226562 1114.351562 403.199219 C 1113.132812 402.167969 1111.882812 401.179688 1110.617188 400.207031 L 1108.699219 398.777344 L 1106.761719 397.382812 C 1105.476562 396.457031 1104.191406 395.53125 1102.90625 394.605469 C 1101.640625 393.660156 1100.394531 392.6875 1099.179688 391.683594 C 1097.964844 390.679688 1096.78125 389.644531 1095.664062 388.542969 C 1093.929688 386.851562 1092.398438 385.019531 1091.378906 382.925781 C 1090.867188 381.886719 1090.476562 380.792969 1090.230469 379.671875 C 1089.984375 378.550781 1089.878906 377.40625 1089.910156 376.265625 C 1089.933594 375.125 1090.074219 373.988281 1090.453125 372.9375 C 1090.644531 372.414062 1090.898438 371.914062 1091.21875 371.46875 C 1091.542969 371.027344 1091.945312 370.628906 1092.386719 370.308594 C 1093.289062 369.664062 1094.378906 369.308594 1095.492188 369.121094 C 1096.046875 369.027344 1096.613281 368.96875 1097.179688 368.945312 C 1097.746094 368.921875 1098.316406 368.917969 1098.878906 368.976562 C 1100 369.089844 1101.109375 369.402344 1102.128906 369.90625 C 1103.144531 370.410156 1104.070312 371.109375 1104.804688 371.988281 C 1105.171875 372.425781 1105.488281 372.90625 1105.738281 373.421875 C 1105.988281 373.9375 1106.167969 374.488281 1106.296875 375.050781 C 1106.542969 376.183594 1106.550781 377.359375 1106.476562 378.527344 C 1106.40625 379.695312 1106.253906 380.867188 1106.128906 382.046875 C 1106.066406 382.636719 1106.007812 383.230469 1105.976562 383.828125 C 1105.953125 384.128906 1105.960938 384.425781 1105.949219 384.726562 C 1105.945312 385.027344 1105.9375 385.328125 1105.9375 385.628906 C 1105.933594 385.929688 1105.933594 386.230469 1105.933594 386.53125 C 1105.929688 386.832031 1105.921875 387.136719 1105.945312 387.441406 C 1105.976562 388.054688 1106.15625 388.65625 1106.429688 389.207031 C 1106.714844 389.753906 1107.105469 390.25 1107.570312 390.660156 C 1108.039062 391.074219 1108.578125 391.402344 1109.164062 391.640625 C 1109.640625 391.820312 1110.164062 391.953125 1110.699219 392.015625 C 1110.894531 392.023438 1111.078125 392.039062 1111.269531 392.046875 L 1111.835938 392.050781 L 1112.964844 392.066406 L 1115.226562 392.09375 C 1116.730469 392.113281 1118.238281 392.132812 1119.742188 392.152344 L 1122.003906 392.183594 C 1122.753906 392.1875 1123.5 392.238281 1124.289062 392.132812 C 1124.386719 392.121094 1124.488281 392.105469 1124.59375 392.078125 C 1124.625 392.070312 1124.628906 392.070312 1124.652344 392.066406 L 1124.722656 392.050781 L 1124.871094 392.019531 C 1125.0625 391.96875 1125.253906 391.910156 1125.4375 391.839844 C 1125.621094 391.769531 1125.796875 391.695312 1125.976562 391.613281 C 1126.160156 391.523438 1126.328125 391.429688 1126.496094 391.324219 C 1126.664062 391.21875 1126.824219 391.105469 1126.980469 390.988281 C 1127.136719 390.871094 1127.296875 390.726562 1127.429688 390.59375 C 1127.710938 390.316406 1127.972656 390.011719 1128.1875 389.667969 L 1128.171875 389.6875 C 1128.246094 389.589844 1128.292969 389.496094 1128.332031 389.421875 L 1128.457031 389.1875 C 1128.480469 389.144531 1128.503906 389.097656 1128.523438 389.046875 L 1128.578125 388.917969 L 1128.683594 388.664062 L 1128.777344 388.335938 L 1128.804688 388.246094 C 1128.816406 388.210938 1128.824219 388.179688 1128.828125 388.148438 L 1128.863281 387.972656 L 1128.890625 387.8125 C 1128.902344 387.757812 1128.914062 387.695312 1128.921875 387.617188 L 1128.945312 387.273438 C 1128.964844 386.8125 1128.960938 386.375 1128.96875 385.929688 C 1128.984375 385.042969 1129 384.15625 1129.015625 383.269531 C 1129.046875 381.496094 1129.074219 379.714844 1129.105469 377.9375 C 1129.113281 376.140625 1129.058594 374.355469 1128.878906 372.546875 C 1128.832031 372.101562 1128.785156 371.652344 1128.714844 371.203125 C 1128.652344 370.757812 1128.578125 370.304688 1128.496094 369.855469 C 1128.328125 368.957031 1128.109375 368.066406 1127.835938 367.191406 C 1127.5625 366.316406 1127.234375 365.453125 1126.847656 364.613281 C 1126.460938 363.785156 1126.019531 362.953125 1125.5 362.179688 C 1124.460938 360.628906 1123.171875 359.261719 1121.742188 358.074219 C 1120.3125 356.890625 1118.746094 355.875 1117.09375 355.023438 C 1115.441406 354.175781 1113.722656 353.472656 1111.964844 352.882812 C 1110.75 352.476562 1109.515625 352.113281 1108.261719 351.808594 C 1107.640625 351.652344 1107.015625 351.507812 1106.382812 351.375 C 1105.746094 351.238281 1105.117188 351.121094 1104.480469 351.003906 C 1103.203125 350.777344 1101.925781 350.585938 1100.625 350.449219 C 1099.324219 350.316406 1098.019531 350.238281 1096.707031 350.21875 C 1095.394531 350.199219 1094.085938 350.238281 1092.773438 350.335938 C 1091.460938 350.441406 1090.152344 350.609375 1088.851562 350.847656 C 1086.261719 351.3125 1083.699219 352.054688 1081.253906 353.078125 C 1080.046875 353.601562 1078.859375 354.183594 1077.710938 354.851562 C 1076.566406 355.523438 1075.472656 356.28125 1074.445312 357.125 C 1073.421875 357.96875 1072.464844 358.890625 1071.597656 359.890625 C 1070.730469 360.890625 1069.953125 361.964844 1069.269531 363.09375 C 1067.902344 365.347656 1066.921875 367.808594 1066.296875 370.335938 C 1065.675781 372.863281 1065.394531 375.449219 1065.386719 378.007812 C 1065.386719 379.109375 1065.425781 380.222656 1065.527344 381.355469 C 1065.632812 382.484375 1065.796875 383.621094 1066.03125 384.757812 C 1066.261719 385.890625 1066.558594 387.019531 1066.921875 388.128906 C 1067.28125 389.242188 1067.71875 390.339844 1068.21875 391.402344 C 1069.222656 393.53125 1070.476562 395.519531 1071.898438 397.324219 C 1072.253906 397.769531 1072.617188 398.210938 1072.980469 398.632812 C 1073.355469 399.054688 1073.730469 399.46875 1074.097656 399.882812 C 1074.28125 400.089844 1074.472656 400.289062 1074.664062 400.484375 C 1074.855469 400.683594 1075.046875 400.882812 1075.242188 401.078125 C 1075.4375 401.269531 1075.628906 401.464844 1075.824219 401.65625 C 1076.015625 401.839844 1076.207031 402.027344 1076.398438 402.210938 C 1079.359375 405.019531 1082.542969 407.574219 1085.808594 410 C 1087.4375 411.214844 1089.117188 412.367188 1090.734375 413.554688 C 1091.539062 414.15625 1092.328125 414.777344 1093.128906 415.382812 C 1093.933594 415.988281 1094.710938 416.621094 1095.476562 417.265625 C 1097.003906 418.554688 1098.472656 419.90625 1099.804688 421.363281 C 1100.464844 422.085938 1101.082031 422.84375 1101.617188 423.636719 C 1102.148438 424.429688 1102.617188 425.28125 1102.996094 426.15625 C 1103.746094 427.910156 1104.175781 429.8125 1104.277344 431.730469 C 1104.300781 432.210938 1104.308594 432.691406 1104.292969 433.167969 C 1104.289062 433.410156 1104.273438 433.648438 1104.257812 433.886719 C 1104.238281 434.121094 1104.226562 434.351562 1104.183594 434.574219 L 1104.132812 434.910156 L 1104.105469 435.082031 C 1104.097656 435.132812 1104.089844 435.199219 1104.078125 435.238281 C 1104.011719 435.515625 1103.964844 435.742188 1103.910156 435.90625 L 1103.890625 435.972656 C 1103.875 436.003906 1103.871094 436.03125 1103.859375 436.066406 L 1103.847656 436.105469 C 1103.832031 436.152344 1103.816406 436.203125 1103.800781 436.253906 C 1103.765625 436.351562 1103.730469 436.449219 1103.6875 436.550781 C 1103.605469 436.746094 1103.507812 436.945312 1103.398438 437.140625 C 1103.242188 437.421875 1103.113281 437.628906 1102.929688 437.851562 C 1102.753906 438.070312 1102.550781 438.28125 1102.328125 438.480469 L 1102.207031 438.585938 L 1102 438.738281 C 1101.871094 438.835938 1101.757812 438.914062 1101.664062 438.96875 L 1101.578125 439.015625 C 1101.515625 439.050781 1101.472656 439.078125 1101.429688 439.101562 C 1101.351562 439.148438 1101.304688 439.175781 1101.285156 439.1875 L 1100.847656 439.390625 C 1100.742188 439.4375 1100.613281 439.484375 1100.453125 439.539062 L 1100.199219 439.628906 L 1100.183594 439.632812 L 1100.136719 439.648438 L 1100.015625 439.679688 L 1099.542969 439.8125 L 1099.492188 439.824219 L 1099.371094 439.847656 L 1099.132812 439.894531 C 1098.8125 439.964844 1098.492188 440.007812 1098.175781 440.050781 C 1098.011719 440.074219 1097.859375 440.09375 1097.699219 440.113281 L 1097.21875 440.164062 C 1095.929688 440.289062 1094.625 440.335938 1093.347656 440.28125 C 1092.070312 440.226562 1090.789062 440.078125 1089.558594 439.804688 C 1088.332031 439.53125 1087.140625 439.136719 1086.117188 438.53125 C 1085.992188 438.457031 1085.859375 438.371094 1085.75 438.300781 L 1085.671875 438.246094 L 1085.585938 438.179688 L 1085.382812 438.023438 L 1085.207031 437.890625 C 1085.152344 437.847656 1085.113281 437.8125 1085.050781 437.757812 C 1084.953125 437.671875 1084.855469 437.574219 1084.753906 437.46875 C 1084.367188 437.0625 1084.058594 436.589844 1083.859375 436.085938 C 1083.757812 435.828125 1083.675781 435.558594 1083.621094 435.285156 C 1083.570312 435.023438 1083.535156 434.714844 1083.519531 434.4375 C 1083.515625 433.792969 1083.507812 433.148438 1083.503906 432.503906 C 1083.492188 431.195312 1083.480469 429.890625 1083.46875 428.585938 C 1083.414062 423.359375 1083.355469 418.15625 1083.300781 412.949219 C 1083.261719 412.246094 1083.078125 411.492188 1082.738281 410.847656 C 1082.40625 410.207031 1081.960938 409.632812 1081.417969 409.152344 C 1080.867188 408.679688 1080.261719 408.316406 1079.59375 408.054688 C 1079.25 407.921875 1078.917969 407.832031 1078.574219 407.757812 C 1078.398438 407.722656 1078.226562 407.695312 1078.054688 407.671875 C 1077.96875 407.660156 1077.875 407.648438 1077.78125 407.644531 L 1077.519531 407.632812 C 1077.179688 407.621094 1076.84375 407.625 1076.519531 407.628906 L 1075.542969 407.640625 C 1074.890625 407.648438 1074.238281 407.652344 1073.582031 407.660156 C 1072.277344 407.675781 1070.96875 407.6875 1069.660156 407.703125 C 1068.234375 407.71875 1066.800781 407.734375 1065.359375 407.75 C 1064.992188 407.753906 1064.617188 407.769531 1064.238281 407.824219 C 1063.847656 407.878906 1063.488281 407.980469 1063.125 408.101562 C 1062.769531 408.226562 1062.414062 408.375 1062.082031 408.574219 C 1061.753906 408.765625 1061.441406 408.988281 1061.152344 409.238281 C 1060.574219 409.734375 1060.09375 410.367188 1059.78125 411.066406 C 1059.621094 411.414062 1059.496094 411.777344 1059.417969 412.160156 C 1059.398438 412.253906 1059.382812 412.351562 1059.371094 412.445312 L 1059.351562 412.582031 C 1059.34375 412.636719 1059.339844 412.6875 1059.339844 412.738281 L 1059.328125 413.015625 C 1059.324219 413.113281 1059.316406 413.210938 1059.320312 413.300781 C 1059.328125 414.035156 1059.308594 414.765625 1059.292969 415.5 C 1059.273438 416.230469 1059.269531 416.964844 1059.238281 417.703125 C 1059.132812 420.644531 1058.976562 423.601562 1058.921875 426.566406 C 1058.867188 429.53125 1058.902344 432.503906 1059.207031 435.449219 C 1059.527344 438.570312 1060.136719 441.648438 1061.253906 444.550781 C 1062.371094 447.449219 1064.035156 450.144531 1066.203125 452.394531 C 1066.480469 452.675781 1066.742188 452.941406 1067.039062 453.21875 C 1067.324219 453.484375 1067.617188 453.742188 1067.921875 453.992188 C 1068.539062 454.492188 1069.171875 454.941406 1069.839844 455.363281 C 1071.171875 456.207031 1072.605469 456.886719 1074.089844 457.433594 C 1077.058594 458.523438 1080.214844 459.113281 1083.421875 459.414062 Z M 1083.421875 459.414062 " fill-opacity="1" fill-rule="nonzero"/></g><g fill="#bfecac" fill-opacity="1"><g transform="translate(253.759037, 450.749997)"><g><path d="M 13.40625 -104.265625 L 33.515625 -104.265625 L 69.265625 -59.578125 L 105.015625 -104.265625 L 125.125 -104.265625 L 125.125 0 L 102.78125 0 L 102.78125 -68.515625 L 69.265625 -26.8125 L 35.75 -68.515625 L 35.75 0 L 13.40625 0 Z M 13.40625 -104.265625 "/></g></g></g></svg>