<svg xmlns="http://www.w3.org/2000/svg" xmlns:xlink="http://www.w3.org/1999/xlink" width="1900" zoomAndPan="magnify" viewBox="0 0 1425 292.499991" height="390" preserveAspectRatio="xMidYMid meet" version="1.0"><defs><g/><clipPath id="f0f55a8dc8"><rect x="0" width="1073" y="0" height="292"/></clipPath><clipPath id="9768a6b071"><path d="M 1292.425781 57.082031 L 1406.230469 57.082031 L 1406.230469 235 L 1292.425781 235 Z M 1292.425781 57.082031 " clip-rule="nonzero"/></clipPath><clipPath id="72f414b230"><path d="M 808.644531 83.195312 L 946.410156 83.195312 L 946.410156 220.960938 L 808.644531 220.960938 Z M 808.644531 83.195312 " clip-rule="nonzero"/></clipPath><clipPath id="43617f1cc2"><path d="M 1.214844 0 L 225 0 L 225 292 L 1.214844 292 Z M 1.214844 0 " clip-rule="nonzero"/></clipPath><clipPath id="4ea6cad076"><rect x="0" width="224" y="0" height="292"/></clipPath></defs><g transform="matrix(1, 0, 0, 1, 208, 0)"><g clip-path="url(#f0f55a8dc8)"><g fill="#ffffff" fill-opacity="1"><g transform="translate(1.436685, 220.226214)"><g><path d="M 71.296875 2.421875 C 62.597656 2.421875 54.421875 0.8125 46.765625 -2.40625 C 39.109375 -5.632812 32.421875 -10.066406 26.703125 -15.703125 C 20.984375 -21.347656 16.507812 -27.875 13.28125 -35.28125 C 10.0625 -42.695312 8.453125 -50.671875 8.453125 -59.203125 C 8.453125 -67.585938 10.0625 -75.523438 13.28125 -83.015625 C 16.507812 -90.503906 20.941406 -97.066406 26.578125 -102.703125 C 32.222656 -108.347656 38.75 -112.78125 46.15625 -116 C 53.570312 -119.21875 61.546875 -120.828125 70.078125 -120.828125 C 78.296875 -120.828125 85.988281 -119.253906 93.15625 -116.109375 C 100.332031 -112.972656 106.578125 -108.742188 111.890625 -103.421875 C 117.210938 -98.109375 121.441406 -91.867188 124.578125 -84.703125 C 127.722656 -77.535156 129.296875 -69.84375 129.296875 -61.625 C 129.296875 -59.375 129.210938 -57.398438 129.046875 -55.703125 C 128.890625 -54.015625 128.726562 -52.523438 128.5625 -51.234375 C 128.40625 -49.617188 128.25 -48.25 128.09375 -47.125 L 42.296875 -47.125 C 44.066406 -41.644531 47.488281 -36.847656 52.5625 -32.734375 C 57.632812 -28.628906 64.679688 -26.578125 73.703125 -26.578125 C 78.859375 -26.578125 83.367188 -27.222656 87.234375 -28.515625 C 91.109375 -29.804688 94.414062 -31.335938 97.15625 -33.109375 C 100.21875 -35.046875 102.875 -37.300781 105.125 -39.875 L 122.046875 -16.921875 C 118.503906 -13.367188 114.15625 -10.144531 109 -7.25 C 104.644531 -4.832031 99.328125 -2.613281 93.046875 -0.59375 C 86.765625 1.414062 79.515625 2.421875 71.296875 2.421875 Z M 95.453125 -71.296875 C 93.679688 -76.773438 90.5 -81.566406 85.90625 -85.671875 C 81.320312 -89.773438 75.644531 -91.828125 68.875 -91.828125 C 62.101562 -91.828125 56.421875 -89.773438 51.828125 -85.671875 C 47.242188 -81.566406 44.066406 -76.773438 42.296875 -71.296875 Z M 95.453125 -71.296875 "/></g></g></g><g fill="#ffffff" fill-opacity="1"><g transform="translate(139.189237, 220.226214)"><g><path d="M 71.296875 2.421875 C 62.597656 2.421875 54.421875 0.8125 46.765625 -2.40625 C 39.109375 -5.632812 32.421875 -10.066406 26.703125 -15.703125 C 20.984375 -21.347656 16.507812 -27.875 13.28125 -35.28125 C 10.0625 -42.695312 8.453125 -50.671875 8.453125 -59.203125 C 8.453125 -67.585938 10.0625 -75.523438 13.28125 -83.015625 C 16.507812 -90.503906 20.941406 -97.066406 26.578125 -102.703125 C 32.222656 -108.347656 38.75 -112.78125 46.15625 -116 C 53.570312 -119.21875 61.546875 -120.828125 70.078125 -120.828125 C 78.296875 -120.828125 85.988281 -119.253906 93.15625 -116.109375 C 100.332031 -112.972656 106.578125 -108.742188 111.890625 -103.421875 C 117.210938 -98.109375 121.441406 -91.867188 124.578125 -84.703125 C 127.722656 -77.535156 129.296875 -69.84375 129.296875 -61.625 C 129.296875 -59.375 129.210938 -57.398438 129.046875 -55.703125 C 128.890625 -54.015625 128.726562 -52.523438 128.5625 -51.234375 C 128.40625 -49.617188 128.25 -48.25 128.09375 -47.125 L 42.296875 -47.125 C 44.066406 -41.644531 47.488281 -36.847656 52.5625 -32.734375 C 57.632812 -28.628906 64.679688 -26.578125 73.703125 -26.578125 C 78.859375 -26.578125 83.367188 -27.222656 87.234375 -28.515625 C 91.109375 -29.804688 94.414062 -31.335938 97.15625 -33.109375 C 100.21875 -35.046875 102.875 -37.300781 105.125 -39.875 L 122.046875 -16.921875 C 118.503906 -13.367188 114.15625 -10.144531 109 -7.25 C 104.644531 -4.832031 99.328125 -2.613281 93.046875 -0.59375 C 86.765625 1.414062 79.515625 2.421875 71.296875 2.421875 Z M 95.453125 -71.296875 C 93.679688 -76.773438 90.5 -81.566406 85.90625 -85.671875 C 81.320312 -89.773438 75.644531 -91.828125 68.875 -91.828125 C 62.101562 -91.828125 56.421875 -89.773438 51.828125 -85.671875 C 47.242188 -81.566406 44.066406 -76.773438 42.296875 -71.296875 Z M 95.453125 -71.296875 "/></g></g></g><g fill="#ffffff" fill-opacity="1"><g transform="translate(276.941788, 220.226214)"><g><path d="M 65.25 2.421875 C 53.164062 2.421875 43.5 -1.320312 36.25 -8.8125 C 29 -16.3125 25.375 -27.066406 25.375 -41.078125 L 25.375 -85.796875 L 4.828125 -85.796875 L 4.828125 -116 L 15.703125 -116 C 24.566406 -116 29 -120.832031 29 -130.5 L 29 -152.25 L 58 -152.25 L 58 -116 L 84.578125 -116 L 84.578125 -85.796875 L 58 -85.796875 L 58 -45.921875 C 58 -40.441406 59.40625 -36.25 62.21875 -33.34375 C 65.039062 -30.445312 68.867188 -29 73.703125 -29 C 77.253906 -29 80.398438 -29.398438 83.140625 -30.203125 C 84.585938 -30.523438 85.875 -30.929688 87 -31.421875 L 87 -1.203125 C 85.070312 -0.554688 82.976562 0.0820312 80.71875 0.71875 C 78.78125 1.207031 76.484375 1.613281 73.828125 1.9375 C 71.171875 2.257812 68.3125 2.421875 65.25 2.421875 Z M 65.25 2.421875 "/></g></g></g><g fill="#ffffff" fill-opacity="1"><g transform="translate(373.610223, 220.226214)"><g><path d="M 21.75 -169.171875 L 54.375 -169.171875 L 112.375 -96.671875 L 170.375 -169.171875 L 203 -169.171875 L 203 0 L 166.75 0 L 166.75 -111.171875 L 112.375 -43.5 L 58 -111.171875 L 58 0 L 21.75 0 Z M 21.75 -169.171875 "/></g></g></g><g fill="#ffffff" fill-opacity="1"><g transform="translate(598.380237, 220.226214)"><g/></g></g><g fill="#ffffff" fill-opacity="1"><g transform="translate(649.131172, 220.226214)"><g/></g></g><g fill="#ffffff" fill-opacity="1"><g transform="translate(699.882108, 220.226214)"><g/></g></g><g fill="#ffffff" fill-opacity="1"><g transform="translate(745.805158, 220.226214)"><g><path d="M -1.203125 -118.421875 L 33.828125 -118.421875 L 61.140625 -38.671875 L 62.109375 -38.671875 L 89.421875 -118.421875 L 124.46875 -118.421875 L 79.75 0 L 43.5 0 Z M -1.203125 -118.421875 "/></g></g></g><g fill="#ffffff" fill-opacity="1"><g transform="translate(869.057437, 220.226214)"><g><path d="M 15.703125 -118.421875 L 48.328125 -118.421875 L 48.328125 0 L 15.703125 0 Z M 31.90625 -134.125 C 26.75 -134.125 22.359375 -135.9375 18.734375 -139.5625 C 15.109375 -143.1875 13.296875 -147.414062 13.296875 -152.25 C 13.296875 -157.082031 15.144531 -161.3125 18.84375 -164.9375 C 22.550781 -168.5625 26.984375 -170.375 32.140625 -170.375 C 37.296875 -170.375 41.6875 -168.5625 45.3125 -164.9375 C 48.9375 -161.3125 50.75 -157.082031 50.75 -152.25 C 50.75 -147.414062 48.894531 -143.1875 45.1875 -139.5625 C 41.488281 -135.9375 37.0625 -134.125 31.90625 -134.125 Z M 31.90625 -134.125 "/></g></g></g><g fill="#ffffff" fill-opacity="1"><g transform="translate(933.100295, 220.226214)"><g><path d="M 71.296875 2.421875 C 62.597656 2.421875 54.421875 0.8125 46.765625 -2.40625 C 39.109375 -5.632812 32.421875 -10.066406 26.703125 -15.703125 C 20.984375 -21.347656 16.507812 -27.875 13.28125 -35.28125 C 10.0625 -42.695312 8.453125 -50.671875 8.453125 -59.203125 C 8.453125 -67.585938 10.0625 -75.523438 13.28125 -83.015625 C 16.507812 -90.503906 20.941406 -97.066406 26.578125 -102.703125 C 32.222656 -108.347656 38.75 -112.78125 46.15625 -116 C 53.570312 -119.21875 61.546875 -120.828125 70.078125 -120.828125 C 78.296875 -120.828125 85.988281 -119.253906 93.15625 -116.109375 C 100.332031 -112.972656 106.578125 -108.742188 111.890625 -103.421875 C 117.210938 -98.109375 121.441406 -91.867188 124.578125 -84.703125 C 127.722656 -77.535156 129.296875 -69.84375 129.296875 -61.625 C 129.296875 -59.375 129.210938 -57.398438 129.046875 -55.703125 C 128.890625 -54.015625 128.726562 -52.523438 128.5625 -51.234375 C 128.40625 -49.617188 128.25 -48.25 128.09375 -47.125 L 42.296875 -47.125 C 44.066406 -41.644531 47.488281 -36.847656 52.5625 -32.734375 C 57.632812 -28.628906 64.679688 -26.578125 73.703125 -26.578125 C 78.859375 -26.578125 83.367188 -27.222656 87.234375 -28.515625 C 91.109375 -29.804688 94.414062 -31.335938 97.15625 -33.109375 C 100.21875 -35.046875 102.875 -37.300781 105.125 -39.875 L 122.046875 -16.921875 C 118.503906 -13.367188 114.15625 -10.144531 109 -7.25 C 104.644531 -4.832031 99.328125 -2.613281 93.046875 -0.59375 C 86.765625 1.414062 79.515625 2.421875 71.296875 2.421875 Z M 95.453125 -71.296875 C 93.679688 -76.773438 90.5 -81.566406 85.90625 -85.671875 C 81.320312 -89.773438 75.644531 -91.828125 68.875 -91.828125 C 62.101562 -91.828125 56.421875 -89.773438 51.828125 -85.671875 C 47.242188 -81.566406 44.066406 -76.773438 42.296875 -71.296875 Z M 95.453125 -71.296875 "/></g></g></g></g></g><g clip-path="url(#9768a6b071)"><path fill="#c0c0c0" d="M 1332.292969 234.292969 L 1332.34375 233.675781 C 1332.347656 233.679688 1332.351562 233.679688 1332.355469 233.679688 C 1332.375 233.679688 1332.394531 233.683594 1332.414062 233.683594 L 1332.375 234.316406 C 1337.511719 234.824219 1342.667969 234.925781 1347.808594 234.90625 C 1350.382812 234.890625 1352.960938 234.835938 1355.535156 234.691406 C 1358.113281 234.542969 1360.683594 234.296875 1363.246094 233.960938 C 1365.804688 233.625 1368.355469 233.1875 1370.878906 232.625 C 1372.140625 232.34375 1373.394531 232.019531 1374.636719 231.691406 C 1375.257812 231.523438 1375.875 231.328125 1376.496094 231.148438 C 1377.121094 230.972656 1377.746094 230.769531 1378.355469 230.5625 C 1378.96875 230.347656 1379.574219 230.140625 1380.175781 229.917969 C 1380.78125 229.679688 1381.386719 229.453125 1381.992188 229.203125 C 1383.203125 228.695312 1384.382812 228.191406 1385.535156 227.597656 C 1387.847656 226.417969 1390.074219 225.066406 1392.105469 223.417969 C 1396.101562 220.082031 1399.429688 215.957031 1401.730469 211.296875 C 1402.894531 208.972656 1403.828125 206.546875 1404.554688 204.054688 C 1405.253906 201.558594 1405.753906 199.019531 1406.085938 196.449219 C 1406.398438 193.878906 1406.535156 191.304688 1406.546875 188.71875 C 1406.542969 186.132812 1406.382812 183.550781 1406.050781 180.988281 C 1405.386719 175.867188 1403.992188 170.820312 1401.804688 166.128906 C 1400.894531 164.183594 1399.847656 162.296875 1398.683594 160.488281 L 1398.699219 160.476562 L 1398.421875 160.054688 C 1395.542969 155.707031 1392 151.851562 1388.265625 148.269531 C 1386.398438 146.46875 1384.453125 144.75 1382.476562 143.085938 C 1380.496094 141.40625 1378.46875 139.804688 1376.414062 138.230469 L 1373.304688 135.910156 L 1370.15625 133.644531 C 1368.074219 132.140625 1365.988281 130.640625 1363.90625 129.140625 C 1361.851562 127.601562 1359.828125 126.03125 1357.855469 124.398438 C 1355.886719 122.769531 1353.96875 121.085938 1352.152344 119.304688 C 1349.34375 116.5625 1346.855469 113.589844 1345.203125 110.191406 C 1344.375 108.5 1343.738281 106.726562 1343.339844 104.910156 C 1342.9375 103.089844 1342.769531 101.234375 1342.816406 99.382812 C 1342.859375 97.527344 1343.085938 95.683594 1343.703125 93.980469 C 1344.007812 93.132812 1344.421875 92.324219 1344.945312 91.597656 C 1345.464844 90.886719 1346.117188 90.234375 1346.835938 89.71875 C 1348.304688 88.671875 1350.070312 88.09375 1351.871094 87.789062 C 1352.777344 87.636719 1353.695312 87.546875 1354.613281 87.503906 C 1355.53125 87.464844 1356.460938 87.464844 1357.367188 87.554688 C 1359.191406 87.738281 1360.988281 88.242188 1362.640625 89.0625 C 1364.292969 89.878906 1365.796875 91.015625 1366.984375 92.441406 C 1367.578125 93.152344 1368.09375 93.933594 1368.5 94.769531 C 1368.90625 95.605469 1369.199219 96.5 1369.402344 97.414062 C 1369.804688 99.246094 1369.816406 101.15625 1369.699219 103.050781 C 1369.582031 104.949219 1369.332031 106.847656 1369.132812 108.765625 C 1369.03125 109.722656 1368.9375 110.683594 1368.882812 111.652344 C 1368.851562 112.136719 1368.859375 112.625 1368.84375 113.113281 C 1368.835938 113.597656 1368.820312 114.085938 1368.820312 114.574219 C 1368.820312 115.0625 1368.816406 115.550781 1368.8125 116.039062 C 1368.808594 116.527344 1368.796875 117.023438 1368.832031 117.515625 C 1368.882812 118.507812 1369.179688 119.484375 1369.621094 120.378906 C 1370.082031 121.269531 1370.714844 122.070312 1371.472656 122.738281 C 1372.230469 123.410156 1373.109375 123.9375 1374.058594 124.324219 C 1374.832031 124.621094 1375.679688 124.832031 1376.546875 124.933594 C 1376.863281 124.953125 1377.164062 124.972656 1377.472656 124.984375 L 1378.390625 124.996094 L 1380.226562 125.015625 L 1383.890625 125.0625 C 1386.335938 125.09375 1388.78125 125.128906 1391.222656 125.160156 L 1394.886719 125.210938 C 1396.109375 125.214844 1397.316406 125.300781 1398.597656 125.125 C 1398.757812 125.105469 1398.921875 125.078125 1399.089844 125.039062 C 1399.140625 125.027344 1399.152344 125.023438 1399.183594 125.019531 L 1399.304688 124.996094 L 1399.539062 124.941406 C 1399.855469 124.863281 1400.160156 124.761719 1400.457031 124.652344 C 1400.757812 124.539062 1401.042969 124.417969 1401.335938 124.285156 C 1401.636719 124.136719 1401.902344 123.984375 1402.179688 123.816406 C 1402.449219 123.644531 1402.710938 123.464844 1402.964844 123.265625 C 1403.214844 123.078125 1403.476562 122.847656 1403.695312 122.628906 C 1404.148438 122.179688 1404.574219 121.6875 1404.921875 121.125 L 1404.898438 121.164062 C 1405.019531 121 1405.09375 120.847656 1405.15625 120.730469 L 1405.363281 120.347656 C 1405.398438 120.277344 1405.4375 120.199219 1405.46875 120.117188 L 1405.554688 119.914062 L 1405.726562 119.5 L 1405.882812 118.964844 L 1405.925781 118.820312 C 1405.941406 118.765625 1405.953125 118.710938 1405.964844 118.660156 L 1406.019531 118.375 L 1406.066406 118.117188 C 1406.082031 118.027344 1406.101562 117.925781 1406.113281 117.804688 L 1406.152344 117.246094 C 1406.183594 116.492188 1406.175781 115.785156 1406.191406 115.0625 C 1406.214844 113.625 1406.238281 112.1875 1406.265625 110.75 C 1406.316406 107.867188 1406.363281 104.980469 1406.414062 102.09375 C 1406.421875 99.179688 1406.339844 96.285156 1406.042969 93.347656 C 1405.96875 92.625 1405.894531 91.902344 1405.777344 91.171875 C 1405.675781 90.445312 1405.558594 89.710938 1405.421875 88.984375 C 1405.148438 87.527344 1404.796875 86.082031 1404.351562 84.660156 C 1403.910156 83.238281 1403.378906 81.839844 1402.746094 80.480469 C 1402.121094 79.132812 1401.410156 77.785156 1400.558594 76.53125 C 1398.878906 74.011719 1396.785156 71.792969 1394.46875 69.867188 C 1392.148438 67.945312 1389.601562 66.300781 1386.921875 64.917969 C 1384.238281 63.542969 1381.457031 62.402344 1378.601562 61.441406 C 1376.632812 60.785156 1374.628906 60.195312 1372.597656 59.699219 C 1371.585938 59.449219 1370.570312 59.214844 1369.542969 58.996094 C 1368.511719 58.777344 1367.496094 58.585938 1366.457031 58.394531 C 1364.386719 58.03125 1362.3125 57.71875 1360.199219 57.496094 C 1358.09375 57.277344 1355.972656 57.152344 1353.847656 57.121094 C 1351.71875 57.089844 1349.59375 57.152344 1347.460938 57.3125 C 1345.332031 57.480469 1343.207031 57.757812 1341.101562 58.140625 C 1336.898438 58.898438 1332.742188 60.097656 1328.773438 61.757812 C 1326.8125 62.609375 1324.890625 63.554688 1323.023438 64.640625 C 1321.164062 65.730469 1319.390625 66.960938 1317.726562 68.328125 C 1316.066406 69.695312 1314.515625 71.191406 1313.105469 72.816406 C 1311.699219 74.4375 1310.441406 76.183594 1309.332031 78.011719 C 1307.109375 81.667969 1305.519531 85.664062 1304.507812 89.761719 C 1303.496094 93.859375 1303.042969 98.058594 1303.03125 102.210938 C 1303.03125 103.996094 1303.09375 105.804688 1303.261719 107.640625 C 1303.425781 109.472656 1303.695312 111.320312 1304.074219 113.15625 C 1304.449219 114.996094 1304.933594 116.828125 1305.523438 118.632812 C 1306.105469 120.4375 1306.816406 122.21875 1307.628906 123.941406 C 1309.253906 127.394531 1311.289062 130.625 1313.597656 133.546875 C 1314.167969 134.273438 1314.761719 134.988281 1315.351562 135.675781 C 1315.960938 136.355469 1316.566406 137.027344 1317.164062 137.699219 C 1317.464844 138.035156 1317.773438 138.363281 1318.085938 138.679688 C 1318.394531 139 1318.699219 139.320312 1319.019531 139.636719 C 1319.335938 139.953125 1319.648438 140.265625 1319.960938 140.578125 C 1320.277344 140.878906 1320.585938 141.179688 1320.898438 141.476562 C 1325.699219 146.035156 1330.863281 150.175781 1336.160156 154.113281 C 1338.808594 156.089844 1341.535156 157.957031 1344.15625 159.886719 C 1345.460938 160.859375 1346.746094 161.863281 1348.039062 162.851562 C 1349.34375 163.832031 1350.605469 164.855469 1351.847656 165.902344 C 1354.328125 167.992188 1356.710938 170.191406 1358.875 172.550781 C 1359.945312 173.726562 1360.941406 174.953125 1361.8125 176.242188 C 1362.679688 177.527344 1363.433594 178.910156 1364.046875 180.328125 C 1365.265625 183.171875 1365.960938 186.265625 1366.128906 189.371094 C 1366.171875 190.152344 1366.175781 190.929688 1366.15625 191.707031 C 1366.144531 192.097656 1366.125 192.484375 1366.097656 192.875 C 1366.0625 193.253906 1366.050781 193.625 1365.980469 193.988281 L 1365.890625 194.535156 L 1365.851562 194.808594 C 1365.835938 194.894531 1365.824219 195.003906 1365.804688 195.0625 C 1365.695312 195.511719 1365.625 195.882812 1365.535156 196.148438 L 1365.5 196.257812 C 1365.480469 196.308594 1365.46875 196.351562 1365.449219 196.410156 L 1365.433594 196.46875 C 1365.410156 196.550781 1365.382812 196.628906 1365.355469 196.710938 C 1365.300781 196.871094 1365.238281 197.03125 1365.171875 197.191406 C 1365.039062 197.511719 1364.878906 197.832031 1364.703125 198.152344 C 1364.453125 198.609375 1364.242188 198.945312 1363.945312 199.308594 C 1363.65625 199.664062 1363.328125 200 1362.96875 200.324219 L 1362.769531 200.5 L 1362.433594 200.742188 C 1362.222656 200.902344 1362.042969 201.027344 1361.886719 201.121094 L 1361.75 201.195312 C 1361.644531 201.253906 1361.578125 201.292969 1361.511719 201.332031 C 1361.382812 201.410156 1361.308594 201.457031 1361.277344 201.46875 L 1360.5625 201.796875 C 1360.390625 201.878906 1360.183594 201.953125 1359.925781 202.042969 L 1359.515625 202.1875 L 1359.488281 202.199219 L 1359.410156 202.21875 L 1359.214844 202.273438 L 1358.449219 202.484375 L 1358.363281 202.507812 C 1358.367188 202.503906 1358.363281 202.507812 1358.363281 202.507812 L 1358.171875 202.542969 L 1357.78125 202.621094 C 1357.265625 202.734375 1356.746094 202.800781 1356.226562 202.875 C 1355.964844 202.914062 1355.71875 202.945312 1355.457031 202.976562 L 1354.675781 203.058594 C 1352.585938 203.261719 1350.46875 203.335938 1348.398438 203.25 C 1346.320312 203.15625 1344.246094 202.914062 1342.25 202.476562 C 1340.261719 202.03125 1338.324219 201.386719 1336.664062 200.40625 C 1336.464844 200.289062 1336.242188 200.148438 1336.070312 200.03125 L 1335.945312 199.945312 L 1335.800781 199.835938 L 1335.46875 199.585938 L 1335.1875 199.367188 C 1335.101562 199.300781 1335.035156 199.242188 1334.929688 199.152344 C 1334.773438 199.015625 1334.613281 198.855469 1334.453125 198.683594 C 1333.824219 198.023438 1333.324219 197.257812 1333 196.441406 C 1332.832031 196.019531 1332.703125 195.585938 1332.613281 195.144531 C 1332.53125 194.714844 1332.472656 194.214844 1332.449219 193.761719 C 1332.441406 192.71875 1332.429688 191.671875 1332.421875 190.625 C 1332.402344 188.503906 1332.386719 186.386719 1332.367188 184.273438 C 1332.277344 175.792969 1332.183594 167.351562 1332.09375 158.898438 C 1332.03125 157.757812 1331.730469 156.535156 1331.179688 155.492188 C 1330.640625 154.453125 1329.921875 153.515625 1329.039062 152.738281 C 1328.144531 151.976562 1327.164062 151.386719 1326.078125 150.957031 C 1325.523438 150.746094 1324.984375 150.597656 1324.421875 150.480469 C 1324.144531 150.421875 1323.863281 150.375 1323.582031 150.339844 C 1323.445312 150.320312 1323.292969 150.300781 1323.140625 150.292969 L 1322.710938 150.273438 C 1322.160156 150.253906 1321.617188 150.265625 1321.089844 150.269531 L 1319.507812 150.285156 C 1318.449219 150.296875 1317.390625 150.308594 1316.328125 150.320312 C 1314.210938 150.34375 1312.085938 150.367188 1309.960938 150.390625 C 1307.648438 150.414062 1305.324219 150.4375 1302.984375 150.464844 C 1302.386719 150.472656 1301.777344 150.5 1301.164062 150.585938 C 1300.535156 150.675781 1299.949219 150.835938 1299.363281 151.035156 C 1298.785156 151.238281 1298.207031 151.480469 1297.671875 151.800781 C 1297.136719 152.113281 1296.628906 152.472656 1296.160156 152.878906 C 1295.222656 153.6875 1294.445312 154.707031 1293.933594 155.84375 C 1293.675781 156.410156 1293.472656 157.003906 1293.347656 157.621094 C 1293.316406 157.773438 1293.289062 157.929688 1293.269531 158.085938 L 1293.238281 158.304688 C 1293.226562 158.394531 1293.222656 158.480469 1293.21875 158.558594 L 1293.195312 159.007812 C 1293.191406 159.164062 1293.183594 159.328125 1293.1875 159.472656 C 1293.199219 160.660156 1293.167969 161.847656 1293.144531 163.039062 C 1293.113281 164.226562 1293.105469 165.417969 1293.054688 166.613281 C 1292.882812 171.386719 1292.628906 176.1875 1292.539062 180.996094 C 1292.453125 185.800781 1292.511719 190.625 1293.003906 195.410156 C 1293.523438 200.472656 1294.511719 205.464844 1296.328125 210.175781 C 1298.136719 214.878906 1300.832031 219.25 1304.355469 222.902344 C 1304.800781 223.359375 1305.230469 223.789062 1305.707031 224.238281 C 1306.175781 224.667969 1306.652344 225.085938 1307.144531 225.492188 C 1308.144531 226.300781 1309.171875 227.035156 1310.257812 227.71875 C 1312.414062 229.085938 1314.742188 230.1875 1317.148438 231.074219 C 1321.96875 232.84375 1327.085938 233.800781 1332.292969 234.292969 Z M 1332.292969 234.292969 " fill-opacity="1" fill-rule="nonzero"/></g><g clip-path="url(#72f414b230)"><path fill="#0081cc" d="M 877.410156 90.804688 C 843.6875 90.804688 816.25 118.238281 816.25 151.964844 C 816.25 185.6875 843.6875 213.121094 877.410156 213.121094 C 911.136719 213.121094 938.570312 185.6875 938.570312 151.964844 C 938.570312 118.238281 911.136719 90.804688 877.410156 90.804688 Z M 877.410156 220.75 C 859.039062 220.75 841.765625 213.59375 828.773438 200.601562 C 815.78125 187.609375 808.625 170.335938 808.625 151.964844 C 808.625 133.589844 815.78125 116.316406 828.773438 103.324219 C 841.765625 90.332031 859.039062 83.175781 877.410156 83.175781 C 895.785156 83.175781 913.058594 90.332031 926.050781 103.324219 C 939.042969 116.316406 946.199219 133.589844 946.199219 151.964844 C 946.199219 170.335938 939.042969 187.609375 926.050781 200.601562 C 913.058594 213.59375 895.785156 220.75 877.410156 220.75 " fill-opacity="1" fill-rule="nonzero"/></g><path fill="#0081cc" d="M 909.671875 145.242188 L 867.101562 120.664062 C 864.671875 119.257812 861.769531 119.257812 859.339844 120.664062 C 856.910156 122.066406 855.457031 124.578125 855.457031 127.382812 L 855.457031 176.542969 C 855.457031 179.347656 856.910156 181.859375 859.339844 183.265625 C 860.554688 183.964844 861.886719 184.316406 863.21875 184.316406 C 864.554688 184.316406 865.886719 183.964844 867.101562 183.265625 L 909.671875 158.683594 C 912.101562 157.28125 913.554688 154.769531 913.554688 151.964844 C 913.554688 149.15625 912.101562 146.644531 909.671875 145.242188 " fill-opacity="1" fill-rule="nonzero"/><g clip-path="url(#43617f1cc2)"><g transform="matrix(1, 0, 0, 1, 1, 0)"><g clip-path="url(#4ea6cad076)"><g fill="#bfecac" fill-opacity="1"><g transform="translate(-1.281549, 219.195251)"><g><path d="M 21.75 -169.171875 L 54.375 -169.171875 L 112.375 -96.671875 L 170.375 -169.171875 L 203 -169.171875 L 203 0 L 166.75 0 L 166.75 -111.171875 L 112.375 -43.5 L 58 -111.171875 L 58 0 L 21.75 0 Z M 21.75 -169.171875 "/></g></g></g></g></g></g></svg>